<?xml version="1.0" standalone="no"?>
<!DOCTYPE svg PUBLIC "-//W3C//DTD SVG 20010904//EN"
 "http://www.w3.org/TR/2001/REC-SVG-20010904/DTD/svg10.dtd">
<svg version="1.0" xmlns="http://www.w3.org/2000/svg"
 width="400.000000pt" height="400.000000pt" viewBox="0 0 400.000000 400.000000"
 preserveAspectRatio="xMidYMid meet">
<metadata>
Created by potrace 1.15, written by Peter Selinger 2001-2017
</metadata>
<g transform="translate(0.000000,400.000000) scale(0.100000,-0.100000)"
fill="#ffffff" stroke="none">
<path d="M2235 3327 c-9 -27 -57 -195 -119 -422 -37 -132 -77 -276 -90 -320
-13 -44 -38 -132 -55 -195 -18 -63 -45 -162 -61 -220 -16 -58 -43 -154 -60
-215 -16 -60 -44 -159 -61 -220 -49 -170 -74 -258 -114 -405 -20 -74 -52 -187
-70 -250 -65 -221 -87 -311 -81 -318 12 -12 189 -71 197 -66 5 3 13 24 19 47
6 23 23 87 40 142 16 55 56 199 90 320 33 121 73 265 89 320 16 55 43 154 61
220 18 66 45 163 60 215 16 52 45 156 65 230 36 130 46 167 113 405 101 353
182 651 182 665 0 21 -199 86 -205 67z m98 -94 c37 -8 39 -14 21 -64 -8 -24
-26 -84 -40 -134 -13 -49 -36 -133 -50 -185 -14 -52 -26 -96 -28 -97 -3 -4
-69 16 -84 25 -10 7 -7 27 13 95 13 48 34 121 45 164 48 180 61 215 79 208 9
-4 28 -9 44 -12z m-517 -1934 l22 -8 -28 -93 c-41 -136 -100 -351 -100 -366 0
-6 -4 -12 -10 -12 -20 0 -90 32 -90 42 0 5 15 62 34 126 18 64 46 165 62 225
l29 107 30 -6 c17 -4 40 -10 51 -15z"/>
<path d="M1230 2596 c-46 -42 -558 -342 -822 -480 -102 -54 -148 -83 -147 -94
0 -16 561 -437 581 -437 11 0 168 144 168 154 0 4 -44 39 -97 77 -54 38 -169
119 -256 180 l-157 112 104 56 c139 73 325 185 518 312 117 76 156 107 152
119 -8 19 -25 19 -44 1z"/>
<path d="M3017 2490 l-87 -99 212 -144 c117 -79 252 -170 301 -202 48 -32 86
-59 85 -60 -3 -3 -804 -432 -854 -458 -26 -13 -31 -21 -26 -42 2 -14 10 -25
17 -23 27 6 1135 614 1139 624 3 9 -661 489 -693 501 -3 2 -45 -42 -94 -97z"/>
</g>
</svg>
