<?xml version="1.0" standalone="no"?>
<!DOCTYPE svg PUBLIC "-//W3C//DTD SVG 20010904//EN"
 "http://www.w3.org/TR/2001/REC-SVG-20010904/DTD/svg10.dtd">
<svg version="1.0" xmlns="http://www.w3.org/2000/svg"
 width="400.000000pt" height="400.000000pt" viewBox="0 0 400.000000 400.000000"
 preserveAspectRatio="xMidYMid meet">
<metadata>
Created by potrace 1.15, written by Peter Selinger 2001-2017
</metadata>
<g transform="translate(0.000000,400.000000) scale(0.100000,-0.100000)"
fill="#ffffff" stroke="none">
<path d="M1027 2419 c-74 -17 -152 -62 -213 -123 -180 -180 -180 -452 0 -632
180 -180 452 -180 632 0 180 180 180 452 0 632 -112 112 -270 158 -419 123z
m245 -111 c79 -36 142 -98 181 -177 28 -58 32 -75 32 -151 0 -76 -4 -93 -32
-151 -39 -79 -102 -140 -181 -177 -48 -23 -71 -27 -142 -27 -71 0 -94 4 -142
27 -79 37 -142 98 -181 177 -29 59 -32 75 -32 151 0 70 5 95 27 141 85 185
294 267 470 187z"/>
<path d="M2757 2419 c-74 -17 -152 -62 -213 -123 -180 -180 -180 -452 0 -632
180 -180 452 -180 632 0 180 180 180 452 0 632 -112 112 -270 158 -419 123z
m245 -111 c79 -36 142 -98 181 -177 28 -58 32 -75 32 -151 0 -76 -4 -93 -32
-151 -39 -79 -102 -140 -181 -177 -48 -23 -71 -27 -142 -27 -71 0 -94 4 -142
27 -79 37 -142 98 -181 177 -29 59 -32 75 -32 151 0 70 5 95 27 141 85 185
294 267 470 187z"/>
</g>
</svg>
