<?xml version="1.0" standalone="no"?>
<!DOCTYPE svg PUBLIC "-//W3C//DTD SVG 20010904//EN"
 "http://www.w3.org/TR/2001/REC-SVG-20010904/DTD/svg10.dtd">
<svg version="1.0" xmlns="http://www.w3.org/2000/svg"
 width="1600.000000pt" height="1600.000000pt" viewBox="0 0 1600.000000 1600.000000"
 preserveAspectRatio="xMidYMid meet">
<metadata>
Created by potrace 1.15, written by Peter Selinger 2001-2017
</metadata>
<g transform="translate(0.000000,1600.000000) scale(0.100000,-0.100000)"
fill="#ffffff" stroke="none">
<path d="M80 7920 l0 -5200 2564 0 2564 0 86 25 c158 46 274 110 388 214 98
89 199 238 245 360 13 36 28 68 33 71 4 3 280 651 613 1440 333 789 625 1469
648 1510 104 180 314 336 523 390 114 29 378 29 492 0 209 -54 419 -210 523
-390 23 -41 315 -721 648 -1510 333 -789 609 -1437 613 -1440 5 -3 20 -35 33
-71 46 -122 147 -271 245 -360 114 -104 230 -168 388 -214 l86 -25 2574 0
2574 0 0 5200 0 5200 -7920 0 -7920 0 0 -5200z m15315 0 l0 -4755 -2155 0
c-1185 0 -2174 -4 -2198 -8 -76 -15 -232 18 -343 74 -155 77 -231 176 -333
431 -41 101 -94 233 -119 293 -25 61 -94 232 -155 380 -375 920 -868 2122
-897 2190 -50 112 -148 239 -273 352 -133 119 -246 194 -376 249 -355 150
-757 150 -1112 0 -264 -111 -550 -376 -649 -601 -29 -68 -522 -1270 -897
-2190 -61 -148 -130 -319 -155 -380 -25 -60 -78 -192 -119 -293 -81 -204 -130
-283 -221 -357 -92 -75 -187 -118 -308 -138 -53 -9 -612 -11 -2295 -7 l-2225
5 -3 4745 c-1 2610 0 4751 3 4758 3 10 1492 12 7417 10 l7413 -3 0 -4755z"/>
</g>
</svg>
