<?xml version="1.0" standalone="no"?>
<!DOCTYPE svg PUBLIC "-//W3C//DTD SVG 20010904//EN"
 "http://www.w3.org/TR/2001/REC-SVG-20010904/DTD/svg10.dtd">
<svg version="1.0" xmlns="http://www.w3.org/2000/svg"
 width="4000.000000pt" height="4000.000000pt" viewBox="0 0 4000.000000 4000.000000"
 preserveAspectRatio="xMidYMid meet">
<metadata>
Created by potrace 1.15, written by Peter Selinger 2001-2017
</metadata>
<g transform="translate(0.000000,4000.000000) scale(0.100000,-0.100000)"
fill="#ffffff" stroke="none">
<path d="M16917 38366 c-72 -30 -120 -63 -174 -118 -54 -56 -260 -353 -346
-499 -37 -63 -110 -172 -162 -242 -114 -153 -131 -179 -191 -298 -93 -184
-267 -515 -302 -574 -20 -33 -84 -125 -142 -205 -197 -268 -282 -394 -332
-495 -106 -211 -280 -487 -468 -742 -120 -162 -145 -206 -245 -428 -86 -188
-101 -255 -71 -312 27 -53 66 -60 411 -78 171 -9 357 -23 415 -30 441 -59 430
-57 582 -104 53 -16 166 -44 250 -61 101 -20 180 -43 233 -67 88 -39 179 -72
270 -98 33 -9 100 -35 148 -56 64 -29 117 -44 190 -55 141 -21 177 -30 277
-68 105 -41 153 -65 247 -123 48 -29 102 -52 165 -69 60 -16 121 -41 173 -71
200 -117 235 -135 324 -164 128 -42 157 -58 252 -135 44 -36 93 -72 107 -80
44 -23 106 -18 140 11 70 59 188 260 395 675 189 377 223 437 295 509 75 76
84 93 123 224 35 118 125 312 194 418 43 66 425 803 474 915 11 24 45 83 76
130 59 90 160 286 240 464 95 212 138 298 226 447 106 178 167 312 176 382 8
71 -22 129 -90 174 -86 57 -190 105 -253 116 -234 43 -206 33 -444 158 -82 43
-131 62 -170 67 -154 19 -241 39 -315 72 -124 55 -172 70 -283 88 -97 16 -148
32 -307 91 -40 15 -127 35 -205 46 -74 10 -196 34 -270 53 -175 44 -179 45
-553 56 -354 11 -418 18 -550 62 -86 29 -104 31 -272 35 -173 3 -182 3 -238
-21z"/>
<path d="M21685 36585 c-22 -8 -52 -29 -67 -46 -32 -38 -87 -141 -118 -219
-36 -93 -160 -341 -213 -424 -27 -43 -57 -97 -67 -120 -9 -23 -39 -77 -65
-121 -26 -44 -73 -137 -105 -208 -32 -70 -87 -178 -123 -240 -158 -277 -203
-359 -337 -621 -78 -153 -158 -304 -178 -335 -58 -90 -154 -269 -281 -526 -66
-132 -148 -289 -184 -350 -35 -60 -84 -145 -109 -187 -70 -120 -110 -231 -116
-318 -12 -197 51 -251 498 -432 135 -55 324 -140 420 -190 319 -166 344 -178
495 -232 83 -30 186 -68 230 -85 44 -16 122 -42 174 -56 52 -14 131 -42 175
-62 45 -19 131 -52 191 -73 61 -21 147 -54 192 -73 45 -20 126 -45 180 -57 54
-11 140 -34 190 -50 146 -47 166 -49 486 -65 321 -15 321 -15 617 -95 86 -23
211 -28 267 -9 111 36 186 116 265 279 96 200 163 312 259 433 49 61 109 151
134 198 25 48 76 135 115 194 39 58 93 147 121 196 28 49 82 127 121 172 82
97 113 147 145 233 37 105 67 155 141 238 45 51 109 146 179 263 59 101 145
239 190 308 119 182 118 179 118 495 l0 265 -30 65 c-33 71 -146 229 -216 300
-67 69 -348 291 -418 330 -34 19 -104 63 -154 97 -113 77 -181 113 -274 146
-160 58 -309 152 -365 231 -17 24 -30 48 -30 53 0 4 -4 14 -10 21 -6 6 -7 12
-2 12 4 0 -2 10 -14 23 -25 26 -79 30 -106 8 -9 -7 -16 -10 -16 -5 0 4 -12 -3
-27 -17 -14 -13 -23 -17 -18 -9 6 11 5 12 -4 4 -18 -17 -76 -6 -156 28 -38 16
-115 40 -170 53 -125 29 -331 105 -410 151 -156 89 -173 95 -327 105 -207 14
-254 27 -481 128 -176 79 -219 94 -316 111 -61 11 -151 36 -199 54 -109 43
-147 49 -197 31z"/>
<path d="M14111 33310 c-59 -63 -77 -75 -177 -119 -61 -26 -132 -63 -159 -81
-64 -44 -299 -264 -520 -487 -99 -100 -243 -234 -320 -298 -176 -146 -460
-410 -629 -583 -72 -74 -195 -190 -274 -260 -79 -69 -185 -169 -235 -223 -51
-54 -351 -351 -668 -661 -1095 -1071 -2289 -2262 -2360 -2354 -40 -52 -113
-208 -151 -323 -21 -64 -22 -84 -26 -576 -4 -599 8 -817 53 -945 47 -134 64
-229 75 -409 5 -96 15 -193 21 -215 6 -23 55 -130 110 -239 111 -223 122 -255
144 -421 16 -128 27 -158 120 -321 60 -106 83 -185 99 -335 15 -136 30 -177
109 -294 56 -84 112 -207 142 -317 14 -52 40 -132 57 -179 33 -91 76 -219 113
-340 13 -42 64 -152 113 -245 50 -94 100 -201 111 -240 11 -38 27 -95 35 -127
10 -35 43 -97 88 -165 87 -132 101 -163 127 -280 24 -112 42 -148 120 -241 98
-117 136 -206 161 -378 16 -115 34 -164 111 -304 37 -69 82 -163 99 -209 50
-136 186 -386 272 -499 43 -57 98 -142 122 -190 57 -113 80 -142 222 -293 115
-121 200 -221 349 -414 100 -129 354 -425 455 -530 48 -49 102 -112 120 -140
19 -27 62 -81 95 -120 33 -38 82 -96 108 -129 77 -95 314 -343 593 -621 144
-143 292 -294 329 -335 37 -41 251 -259 474 -485 250 -251 424 -435 451 -475
24 -36 82 -105 130 -155 109 -115 300 -338 370 -435 30 -41 90 -116 132 -168
96 -115 118 -151 167 -283 21 -57 59 -149 84 -204 109 -243 132 -345 147 -642
13 -255 20 -300 75 -433 23 -58 48 -130 54 -160 15 -69 30 -360 31 -585 1
-310 17 -365 105 -365 54 0 110 39 152 106 40 65 133 243 168 324 45 102 111
195 187 263 38 34 116 116 172 182 155 181 213 243 304 324 56 49 102 102 136
155 39 60 75 100 137 151 46 38 111 94 144 125 33 31 94 82 135 112 41 30 111
88 155 128 94 86 163 136 305 222 58 35 189 126 293 203 161 120 216 155 390
243 274 140 498 237 616 266 53 13 140 42 192 64 52 22 121 46 154 52 33 7
110 32 171 56 95 37 127 45 230 54 65 5 140 12 166 15 27 2 79 21 127 45 45
22 107 47 139 55 60 15 293 33 503 39 133 4 114 -1 309 81 53 23 82 27 250 36
123 6 247 6 350 0 147 -9 168 -13 277 -50 102 -35 136 -42 258 -51 227 -17
506 -50 564 -66 30 -9 82 -29 115 -46 38 -19 97 -37 162 -48 65 -12 138 -33
198 -59 73 -31 123 -45 208 -57 139 -19 215 -48 391 -148 103 -59 160 -84 237
-105 65 -19 130 -45 183 -76 45 -27 147 -81 227 -122 103 -52 200 -113 334
-209 104 -74 250 -174 325 -220 348 -218 489 -360 499 -504 5 -72 -14 -117
-95 -225 -79 -104 -165 -191 -288 -292 -92 -74 -409 -388 -566 -559 -36 -39
-89 -105 -119 -148 -33 -48 -82 -101 -130 -141 -86 -71 -298 -280 -403 -399
-80 -90 -131 -120 -202 -120 -66 0 -108 23 -229 128 -72 61 -163 122 -330 222
-127 75 -271 163 -321 195 -105 68 -114 71 -225 94 -47 9 -119 33 -160 52
-117 54 -144 62 -263 73 -133 13 -166 21 -272 63 l-80 32 -495 0 -495 0 -110
-37 c-89 -29 -136 -39 -240 -48 -72 -6 -155 -15 -185 -21 -69 -14 -287 -112
-365 -166 -65 -43 -303 -159 -509 -247 -170 -73 -259 -125 -370 -216 -50 -42
-136 -111 -190 -155 -127 -101 -162 -137 -243 -253 -94 -135 -198 -257 -290
-340 -83 -75 -128 -138 -220 -307 -30 -55 -72 -132 -94 -170 -21 -39 -50 -114
-64 -170 -27 -103 -115 -300 -214 -478 l-54 -98 -8 -141 c-10 -171 -20 -224
-68 -348 l-36 -95 0 -400 c1 -541 8 -654 50 -770 53 -147 55 -155 65 -276 5
-64 14 -127 19 -141 5 -13 54 -110 109 -215 55 -105 114 -229 131 -276 16 -46
55 -139 85 -206 31 -67 56 -124 56 -127 0 -2 23 -46 52 -97 34 -61 80 -121
133 -177 45 -47 110 -121 145 -165 102 -130 290 -331 448 -481 122 -114 181
-161 333 -261 101 -67 225 -151 274 -186 119 -85 138 -94 252 -117 79 -17 134
-38 284 -110 231 -110 271 -124 434 -145 195 -25 276 -42 353 -75 38 -16 98
-34 133 -39 127 -19 349 -24 504 -10 144 13 203 15 380 8 78 -3 82 -2 170 42
109 56 154 67 313 78 123 9 124 9 235 65 62 31 151 72 200 91 206 83 269 109
382 161 66 31 158 79 205 108 47 29 125 71 174 94 150 71 238 137 407 309 198
199 259 289 535 782 39 70 70 144 95 225 20 67 48 149 62 184 14 34 29 82 32
107 20 128 -86 206 -259 192 -39 -4 -126 -11 -193 -16 -67 -6 -159 -17 -204
-26 -97 -18 -268 -20 -401 -3 -82 10 -116 9 -226 -5 -177 -23 -819 -39 -1382
-35 -426 4 -448 5 -510 26 -121 40 -202 116 -241 228 -33 92 -40 278 -46 1189
-3 473 -6 896 -6 940 -2 168 98 317 238 357 26 7 139 11 330 10 160 -1 353 2
430 7 77 4 253 4 390 -1 165 -6 274 -5 320 2 39 5 147 10 240 9 311 -1 359 -1
490 4 72 2 216 10 320 16 215 12 409 16 601 12 99 -2 144 1 185 14 92 28 360
45 684 44 297 -1 1110 18 1172 27 45 7 91 48 102 92 7 24 6 219 -1 572 -14
656 -14 705 -4 855 7 94 5 142 -8 221 -15 92 -15 109 0 190 9 53 19 199 24
359 6 195 12 286 24 328 36 132 126 302 218 416 52 65 129 119 309 219 63 34
166 101 229 148 132 98 183 126 260 144 94 21 119 37 208 128 64 65 111 102
177 140 50 28 126 81 170 118 79 66 151 121 460 349 279 206 681 625 777 810
50 96 86 152 148 225 93 110 176 259 232 419 16 47 79 184 140 303 108 214
110 218 118 310 5 51 10 361 10 688 1 706 6 792 55 950 28 89 39 148 50 269
15 154 31 236 60 305 40 94 47 164 55 556 10 415 15 464 68 605 100 265 123
322 140 345 10 14 51 42 91 63 106 57 112 85 43 192 -55 84 -65 123 -64 242 1
141 17 236 62 378 22 66 48 161 59 212 11 50 34 126 50 168 45 110 42 164 -10
190 -61 32 -131 8 -241 -81 -103 -85 -176 -168 -189 -216 -14 -54 -8 -89 32
-180 40 -91 46 -145 24 -228 -29 -113 -243 -582 -357 -783 -78 -135 -112 -184
-249 -347 -48 -56 -117 -153 -155 -213 -98 -159 -229 -321 -358 -447 -145
-142 -201 -187 -316 -253 -52 -30 -124 -73 -160 -96 -95 -61 -343 -185 -430
-214 -163 -54 -438 -92 -605 -84 -408 20 -437 25 -815 133 -30 9 -97 40 -149
70 -52 29 -118 61 -145 70 -28 9 -179 67 -336 129 -157 62 -321 127 -365 144
-44 17 -138 65 -209 107 -170 99 -202 115 -385 190 -85 35 -191 87 -235 115
-144 93 -199 124 -285 162 -46 21 -155 78 -241 127 -87 49 -218 119 -291 154
-74 36 -165 84 -204 106 -38 22 -92 47 -120 56 -27 9 -111 40 -186 70 -76 30
-142 54 -149 54 -7 0 -65 23 -130 50 -111 47 -126 51 -246 60 -71 6 -148 15
-172 21 -87 19 -300 39 -422 39 -127 0 -343 -21 -415 -40 -175 -48 -402 -184
-665 -401 -47 -39 -125 -93 -175 -121 -116 -66 -159 -95 -264 -183 -47 -39
-131 -103 -186 -140 -133 -91 -466 -333 -640 -465 -190 -143 -431 -290 -477
-290 -39 0 -80 31 -101 78 -20 44 -22 70 -30 452 -8 421 -4 878 12 1205 21
418 24 643 12 890 -7 138 -19 281 -27 320 -16 82 -94 246 -157 331 -25 34 -78
88 -119 120 -40 32 -106 89 -146 127 -41 38 -106 89 -145 114 -40 25 -94 65
-122 88 -27 23 -89 70 -137 104 -60 42 -118 97 -183 171 -105 120 -149 153
-263 201 -42 17 -116 51 -163 74 -47 24 -112 51 -145 60 -77 23 -158 60 -269
124 -49 28 -126 65 -170 82 -118 46 -147 63 -222 130 -71 63 -103 84 -378 247
-106 63 -209 115 -275 140 -107 40 -372 179 -535 281 -49 31 -135 94 -190 140
-109 91 -169 132 -345 236 -157 93 -210 135 -286 226 -36 43 -102 108 -148
144 -85 68 -124 113 -197 230 -24 39 -76 117 -115 175 -39 58 -83 128 -97 156
-42 82 -123 300 -152 404 -14 52 -44 150 -66 217 -49 153 -61 281 -49 515 7
154 10 171 49 286 26 77 50 178 66 274 30 189 54 282 110 424 86 222 132 289
232 341 111 58 215 66 320 24 27 -11 104 -51 173 -90 135 -77 439 -211 535
-236 39 -10 104 -15 190 -15 115 0 136 3 180 24 51 24 112 76 157 137 38 50
322 545 393 684 34 66 77 145 97 175 44 69 149 275 182 358 14 34 46 92 71
128 25 37 68 110 95 163 26 53 77 145 113 204 36 59 86 158 112 219 64 154 97
216 172 333 243 376 288 455 318 559 25 85 18 181 -18 235 -36 55 -114 104
-217 139 -102 35 -125 46 -234 117 -123 80 -345 182 -676 311 -75 29 -179 89
-262 150 -83 61 -123 72 -278 78 -163 6 -211 16 -360 71 -63 24 -189 67 -280
96 l-165 53 -590 6 c-364 4 -602 10 -620 17 -16 6 -58 24 -92 42 -95 48 -113
44 -192 -39z"/>
<path d="M26362 32764 c-66 -33 -108 -88 -192 -249 -69 -134 -212 -340 -331
-478 -56 -65 -96 -124 -135 -202 -63 -124 -76 -144 -151 -234 -30 -34 -76 -96
-103 -137 -28 -40 -79 -106 -115 -146 -43 -48 -86 -112 -125 -188 -60 -114
-142 -234 -305 -445 -47 -60 -104 -141 -128 -180 -24 -38 -71 -108 -105 -154
-34 -45 -87 -132 -118 -192 -42 -82 -74 -129 -129 -187 -39 -42 -99 -115 -132
-162 -33 -47 -84 -119 -114 -160 -30 -42 -79 -122 -109 -179 -51 -96 -196
-291 -317 -425 -24 -27 -73 -106 -108 -175 -42 -83 -88 -155 -134 -210 -39
-47 -93 -129 -121 -182 -31 -58 -77 -125 -114 -166 -96 -107 -112 -131 -149
-229 -24 -66 -56 -123 -112 -200 -73 -103 -132 -215 -245 -465 -52 -115 -75
-152 -187 -299 -40 -52 -101 -134 -135 -182 -35 -47 -110 -144 -167 -215 -130
-160 -182 -239 -313 -478 -145 -264 -228 -408 -326 -565 -73 -118 -276 -513
-335 -655 -17 -39 -21 -71 -21 -150 0 -90 5 -115 47 -255 26 -85 65 -198 86
-250 21 -52 49 -140 61 -195 37 -166 74 -219 161 -235 56 -10 116 3 259 59
157 62 237 86 348 106 48 9 125 27 172 41 113 32 397 68 475 60 33 -4 155 -13
270 -21 241 -16 377 -45 572 -121 63 -25 161 -59 216 -75 56 -17 154 -55 217
-84 157 -74 210 -85 410 -85 187 1 217 7 341 79 124 70 205 137 404 331 172
168 381 359 508 465 26 22 78 76 115 120 37 44 108 123 157 175 103 110 235
269 318 385 31 44 103 130 159 190 56 61 133 153 171 205 39 52 100 127 136
165 36 39 95 106 131 150 35 44 99 120 141 168 42 48 101 129 130 180 51 86
103 157 353 472 137 172 200 266 281 410 76 136 94 162 180 254 34 36 83 94
109 129 26 34 72 91 102 125 71 80 94 125 94 183 0 101 -41 140 -295 279 -88
49 -207 118 -265 154 -107 67 -183 100 -233 101 -47 0 -91 -25 -163 -94 -85
-82 -158 -121 -214 -113 -36 5 -63 20 -270 156 -42 28 -59 47 -74 84 l-20 47
25 108 c44 196 29 257 -93 364 -163 141 -236 222 -275 305 -34 69 -38 88 -41
173 -4 106 12 203 51 298 29 74 178 315 244 396 63 79 139 120 202 112 58 -8
212 -84 284 -141 108 -86 121 -144 62 -275 -52 -114 -44 -199 20 -228 70 -32
130 -3 195 94 69 101 97 119 185 119 59 0 81 -5 137 -33 77 -37 175 -128 207
-189 29 -59 27 -111 -10 -196 -37 -84 -46 -141 -29 -191 16 -49 55 -85 154
-146 46 -27 153 -102 238 -165 246 -184 352 -225 460 -177 91 40 152 112 292
345 71 117 101 175 167 327 13 30 49 86 80 125 93 117 109 148 164 307 29 84
64 184 79 221 53 138 72 352 41 472 -33 128 -140 253 -306 361 -62 40 -146
108 -217 176 -124 119 -368 307 -465 359 -33 17 -96 61 -141 97 -137 112 -327
242 -417 287 -93 47 -157 92 -234 164 -63 60 -82 71 -179 106 -57 20 -106 48
-175 101 -65 48 -124 83 -182 107 -48 19 -141 71 -209 116 -129 86 -227 139
-295 161 -22 7 -85 33 -140 59 -99 45 -102 46 -220 49 -114 3 -123 2 -173 -24z"/>
<path d="M19075 31627 c-48 -22 -90 -70 -143 -165 -27 -48 -84 -137 -125 -199
-42 -61 -94 -149 -116 -195 -22 -46 -60 -111 -85 -145 -24 -33 -66 -98 -92
-144 -25 -46 -65 -112 -87 -148 -22 -37 -94 -173 -159 -305 -66 -131 -135
-264 -155 -295 -20 -31 -114 -210 -209 -398 -95 -188 -191 -368 -213 -400 -21
-32 -88 -155 -148 -273 -79 -157 -116 -242 -137 -316 -34 -124 -101 -265 -195
-408 -80 -123 -111 -206 -111 -298 0 -87 25 -126 135 -206 49 -36 136 -104
193 -150 129 -105 199 -147 287 -173 266 -78 449 -140 570 -194 77 -35 235
-93 350 -130 116 -37 278 -90 360 -117 127 -42 168 -52 265 -59 221 -17 296
-29 440 -69 237 -66 270 -69 756 -80 265 -6 453 -6 472 -1 55 16 85 46 142
141 30 50 87 127 125 169 39 43 86 106 105 140 19 34 76 126 126 204 50 78
101 167 113 197 36 86 65 132 147 227 52 61 94 123 134 203 71 138 171 293
269 415 50 63 91 130 136 222 70 145 256 435 354 551 68 81 89 119 127 224 34
94 58 130 139 214 52 53 79 92 119 174 28 58 70 132 92 165 89 130 111 210 77
274 -35 66 -84 84 -318 111 -57 7 -152 28 -220 50 -66 20 -174 45 -240 54 -78
11 -165 32 -250 61 -71 23 -180 54 -241 68 -61 14 -166 46 -235 71 -68 25
-187 69 -264 97 -166 61 -389 134 -610 199 -88 26 -198 62 -245 80 -47 17
-130 47 -185 65 -94 32 -395 170 -875 401 -192 93 -209 99 -275 102 -44 1 -81
-3 -100 -11z"/>
<path d="M30023 29386 c-36 -26 -37 -71 -7 -156 21 -57 28 -99 32 -176 5 -128
-10 -217 -55 -325 -119 -283 -164 -402 -188 -501 -43 -170 -146 -362 -285
-528 -35 -41 -99 -129 -143 -195 -44 -66 -107 -154 -140 -195 -33 -41 -80
-106 -105 -145 -45 -69 -169 -209 -374 -418 -75 -76 -117 -129 -142 -177 -44
-83 -83 -133 -206 -265 -93 -100 -254 -307 -406 -522 -45 -63 -126 -161 -181
-217 -145 -147 -259 -285 -345 -416 -61 -92 -105 -143 -219 -255 -79 -77 -200
-187 -269 -245 -68 -57 -187 -165 -265 -239 -229 -219 -308 -268 -475 -296
-52 -9 -113 -25 -135 -34 -41 -19 -149 -102 -293 -228 -46 -40 -111 -86 -145
-102 -80 -37 -111 -71 -111 -118 0 -46 36 -77 134 -117 105 -42 166 -106 231
-241 30 -62 67 -121 88 -141 20 -20 93 -63 168 -99 72 -35 177 -93 232 -130
55 -36 146 -85 203 -109 57 -24 166 -73 243 -109 170 -78 259 -111 356 -131
175 -35 653 -28 804 12 448 120 805 254 1185 447 105 54 141 79 224 155 69 63
123 103 176 130 94 47 127 75 187 154 73 96 141 163 233 226 106 73 130 98
250 257 80 108 113 142 208 218 114 91 151 130 225 240 22 33 97 119 167 190
130 134 262 313 364 493 26 45 73 122 105 171 68 104 261 482 286 561 16 51
106 251 195 435 91 186 192 264 284 220 49 -23 73 -60 93 -141 15 -59 15 -81
5 -175 -7 -59 -26 -152 -43 -206 -44 -144 -89 -326 -89 -365 0 -51 24 -78 68
-78 33 0 45 8 112 78 78 81 181 223 227 313 21 42 27 72 31 143 6 119 -6 178
-68 327 -74 182 -107 245 -162 304 -82 90 -174 107 -284 55 -56 -27 -219 -185
-362 -353 -183 -212 -279 -253 -349 -148 -27 40 -31 125 -9 188 29 81 209 440
247 490 21 28 91 98 156 154 65 57 159 143 210 191 182 175 295 187 463 48 31
-27 71 -70 88 -97 31 -48 62 -151 62 -208 0 -71 21 -109 99 -185 46 -46 90
-101 111 -140 39 -72 69 -91 118 -74 64 22 92 160 92 456 -1 253 -8 289 -123
565 -57 139 -78 173 -163 263 -28 30 -73 89 -99 130 -69 108 -121 166 -276
309 -138 128 -376 315 -544 428 -49 33 -129 97 -177 141 -61 57 -112 94 -169
123 -45 22 -130 70 -188 107 -58 36 -144 80 -191 99 -47 18 -123 55 -170 82
-47 27 -104 54 -127 60 -57 16 -303 38 -498 46 -138 6 -163 5 -182 -9z"/>
<path d="M21115 16574 c-60 -8 -180 -16 -265 -18 -153 -3 -156 -3 -238 -40
-112 -49 -150 -56 -337 -65 -159 -7 -160 -8 -252 -49 -107 -48 -133 -55 -303
-77 -69 -8 -209 -36 -312 -60 -103 -25 -242 -54 -309 -65 -92 -16 -144 -31
-217 -64 -54 -24 -108 -47 -122 -51 -14 -3 -88 -37 -165 -75 -77 -37 -201 -96
-275 -130 -403 -185 -547 -267 -685 -392 -108 -97 -139 -119 -285 -203 -198
-115 -236 -143 -334 -246 -49 -52 -149 -148 -222 -214 -74 -66 -166 -158 -205
-205 -39 -47 -171 -186 -293 -310 -214 -218 -223 -229 -292 -350 -39 -69 -109
-186 -154 -260 -46 -74 -106 -175 -133 -225 -27 -49 -70 -124 -95 -165 -107
-178 -125 -213 -176 -350 -30 -80 -60 -167 -67 -194 -10 -38 -10 -184 -3 -655
13 -883 12 -1371 -4 -1455 -20 -104 -53 -165 -127 -235 -167 -155 -253 -200
-402 -209 -122 -6 -193 9 -331 69 -79 36 -144 56 -220 70 -146 27 -188 42
-325 113 l-119 61 -275 3 c-314 4 -318 3 -442 -76 -42 -27 -124 -72 -183 -100
-129 -61 -171 -91 -206 -151 -25 -43 -27 -54 -35 -256 -12 -276 -7 -299 97
-400 40 -38 100 -86 134 -105 35 -19 104 -62 155 -94 50 -33 136 -79 190 -103
55 -23 124 -58 155 -77 65 -38 94 -48 209 -71 46 -9 129 -34 186 -55 78 -30
133 -43 231 -55 136 -16 224 -41 294 -82 24 -13 96 -45 160 -69 128 -48 154
-64 258 -150 39 -32 108 -88 152 -123 162 -126 248 -242 271 -366 5 -28 14
-102 21 -166 14 -141 6 -167 -66 -224 -68 -53 -88 -78 -139 -171 -24 -45 -66
-110 -92 -145 -26 -35 -72 -112 -104 -171 -31 -59 -109 -177 -172 -261 -76
-100 -132 -187 -162 -250 -32 -66 -67 -119 -110 -167 -36 -40 -85 -111 -111
-158 -41 -75 -68 -107 -198 -235 -83 -81 -227 -209 -321 -284 -93 -75 -235
-200 -315 -278 -190 -186 -282 -264 -399 -340 -116 -75 -171 -103 -287 -149
-241 -93 -356 -146 -421 -193 -37 -28 -95 -65 -128 -83 -33 -18 -91 -53 -130
-76 -100 -61 -143 -78 -298 -118 -76 -19 -179 -53 -230 -74 -117 -50 -142 -57
-252 -77 -64 -12 -119 -31 -191 -66 -64 -31 -140 -58 -208 -74 -59 -14 -124
-34 -145 -44 -84 -43 -140 -141 -126 -220 7 -39 113 -238 152 -284 13 -16 59
-59 103 -95 180 -150 193 -158 281 -182 46 -12 126 -40 178 -62 80 -34 113
-42 225 -54 153 -17 180 -23 284 -68 106 -45 150 -54 357 -71 200 -16 257 -28
366 -78 104 -47 159 -64 266 -81 183 -29 209 -41 390 -178 179 -136 199 -169
222 -356 13 -105 27 -149 70 -218 47 -77 69 -134 87 -220 27 -134 80 -199 201
-244 68 -25 324 -37 488 -22 93 9 125 17 208 51 189 80 143 76 967 76 826 0
816 1 973 -71 57 -26 136 -52 191 -64 102 -21 162 -42 216 -75 67 -42 143 -77
242 -111 55 -19 132 -55 172 -79 40 -24 120 -66 177 -94 57 -28 133 -68 167
-90 35 -22 95 -52 133 -66 38 -15 108 -50 156 -79 147 -88 273 -157 370 -202
51 -23 111 -56 135 -72 24 -16 79 -50 123 -77 44 -26 123 -78 175 -115 53 -37
154 -94 228 -129 124 -57 144 -64 265 -81 138 -20 196 -37 310 -89 53 -25 100
-36 210 -51 171 -24 184 -28 317 -97 103 -53 108 -55 225 -65 70 -6 346 -8
670 -6 608 5 587 3 704 72 113 66 163 77 469 105 91 9 114 15 210 59 61 28
148 59 202 71 52 12 140 42 195 67 55 26 127 59 160 74 34 15 90 48 125 75 36
26 106 68 155 92 50 25 110 59 135 76 77 54 292 177 380 219 109 51 280 146
394 216 50 31 133 73 185 94 52 21 136 63 185 92 50 30 137 71 193 90 56 19
138 55 181 80 103 60 144 74 287 95 72 11 147 29 185 46 127 53 196 74 280 85
124 16 1397 8 1465 -10 28 -7 94 -30 147 -51 136 -55 175 -61 418 -61 238 0
277 6 359 62 57 39 90 85 125 175 15 39 44 97 65 130 54 87 61 108 82 233 11
63 30 136 44 165 52 111 165 223 355 352 99 67 140 86 264 121 50 15 136 46
192 70 127 55 190 71 328 84 252 24 289 30 386 69 139 56 152 59 297 75 113
13 146 20 226 55 51 22 122 47 158 56 90 24 125 40 186 86 29 21 94 62 145 90
107 57 154 100 194 173 26 47 29 61 32 175 5 138 -4 183 -44 231 -33 38 -63
54 -144 75 -36 9 -110 38 -166 65 -116 55 -150 66 -254 75 -120 11 -168 24
-290 81 -82 38 -144 59 -217 74 -120 24 -171 44 -254 101 -33 22 -104 60 -157
83 -53 23 -131 65 -172 93 -71 49 -248 135 -389 189 -89 35 -117 50 -191 104
-36 26 -106 68 -155 93 -118 59 -166 97 -370 297 -93 91 -225 210 -293 264
-73 57 -140 120 -165 154 -23 31 -81 97 -128 147 -47 49 -112 125 -143 168
-32 43 -99 122 -150 175 -73 76 -103 118 -145 197 -34 65 -78 129 -125 182
-40 46 -89 113 -107 150 -99 196 -190 351 -246 419 -72 85 -90 118 -133 235
-16 46 -48 113 -70 151 -102 171 -94 243 46 438 94 132 141 180 225 230 36 22
102 69 145 106 44 38 108 80 144 97 36 16 124 57 195 92 101 50 152 68 230 84
55 11 149 38 208 61 85 32 139 45 250 60 l142 19 175 89 c96 48 200 104 230
124 30 19 102 58 160 86 171 83 334 220 395 332 25 48 30 68 33 152 4 87 2
102 -21 152 -29 63 -95 132 -191 201 -91 65 -139 83 -267 100 -79 11 -154 30
-244 62 l-130 45 -265 11 c-313 12 -372 6 -517 -52 -55 -22 -157 -56 -227 -75
-69 -20 -174 -55 -233 -77 -179 -69 -306 -64 -418 16 -76 54 -220 217 -256
290 -61 123 -51 296 28 494 72 184 70 322 -7 358 -62 28 -560 14 -715 -21 -55
-13 -156 -17 -460 -22 -214 -2 -397 -8 -405 -11 -32 -13 -1719 -41 -2737 -45
-702 -3 -712 -3 -740 -24 -57 -42 -65 -74 -57 -219 4 -71 8 -539 9 -1040 2
-852 3 -912 20 -948 9 -20 29 -46 44 -56 51 -37 96 -41 361 -34 140 3 359 7
485 7 129 1 267 7 315 14 47 7 200 17 340 22 140 5 303 15 362 21 74 8 148 9
245 3 136 -9 265 -5 573 17 85 6 238 10 340 8 180 -4 187 -5 243 -33 74 -36
110 -89 128 -185 16 -95 0 -179 -60 -311 -27 -58 -58 -140 -70 -183 -23 -84
-43 -128 -95 -210 -18 -29 -54 -92 -79 -142 -25 -49 -74 -130 -109 -180 -35
-49 -102 -148 -150 -220 -52 -79 -138 -187 -217 -275 -208 -229 -278 -289
-431 -364 -41 -21 -124 -75 -185 -121 -99 -75 -293 -189 -402 -236 -23 -10
-77 -27 -122 -39 -46 -13 -111 -41 -156 -67 -165 -98 -535 -210 -740 -223
-104 -7 -133 -13 -213 -44 -140 -55 -237 -62 -640 -48 -360 13 -412 20 -540
77 -82 36 -117 45 -262 66 -58 9 -99 24 -180 66 -157 81 -292 138 -415 173
-80 22 -136 46 -205 87 -52 31 -120 71 -150 89 -30 18 -99 66 -152 107 -54 41
-138 96 -188 122 -50 25 -117 67 -148 93 -78 63 -516 505 -628 633 -207 239
-452 655 -539 919 -15 47 -47 124 -71 171 -23 47 -53 112 -67 145 -13 33 -43
91 -65 129 -67 110 -82 162 -97 335 -11 129 -18 167 -43 230 -55 138 -57 161
-57 585 0 424 -2 406 62 570 30 76 37 109 44 210 16 213 26 242 204 565 50 90
67 133 80 198 23 114 46 179 106 291 64 119 109 185 198 286 38 44 89 115 112
159 23 43 70 108 103 145 34 36 91 102 127 146 101 126 371 406 471 490 104
88 300 218 473 315 261 146 366 201 439 230 89 35 175 78 303 153 107 63 161
81 298 101 55 8 140 29 189 45 149 51 214 56 746 56 536 0 583 -4 760 -60 58
-19 136 -41 174 -50 61 -14 201 -68 366 -141 30 -14 84 -42 120 -64 36 -21
106 -50 155 -65 113 -34 166 -60 269 -134 44 -32 117 -78 160 -102 49 -27 115
-77 168 -127 97 -91 117 -102 189 -102 72 0 133 35 247 143 54 50 135 125 180
166 45 40 116 115 158 165 42 50 160 174 263 276 103 102 213 215 245 252 31
37 114 118 184 179 154 135 253 244 292 323 25 49 30 71 30 130 0 88 -21 135
-86 197 -59 57 -237 178 -356 244 -54 30 -123 81 -179 132 -74 67 -113 94
-203 138 -61 30 -162 82 -223 116 -62 33 -157 79 -210 100 -54 22 -141 64
-193 94 -52 29 -126 63 -165 75 -38 11 -112 36 -162 55 -51 19 -125 42 -165
51 -40 9 -121 34 -181 56 -78 28 -162 48 -306 73 -110 19 -225 44 -258 56
-158 58 -171 60 -388 69 -314 14 -366 23 -540 96 -80 33 -101 37 -185 40 -52
1 -144 -4 -205 -12z"/>
</g>
</svg>
