<?xml version="1.0" standalone="no"?>
<!DOCTYPE svg PUBLIC "-//W3C//DTD SVG 20010904//EN"
 "http://www.w3.org/TR/2001/REC-SVG-20010904/DTD/svg10.dtd">
<svg version="1.0" xmlns="http://www.w3.org/2000/svg"
 width="511.000000pt" height="511.000000pt" viewBox="0 0 511.000000 511.000000"
 preserveAspectRatio="xMidYMid meet">
<metadata>
Created by potrace 1.15, written by Peter Selinger 2001-2017
</metadata>
<g transform="translate(0.000000,511.000000) scale(0.100000,-0.100000)"
fill="#ffffff" stroke="none">
<path d="M3135 4407 c-7 -18 -26 -102 -40 -187 -35 -198 -69 -332 -95 -376
-12 -19 -40 -49 -63 -67 -41 -33 -61 -45 -252 -157 -176 -103 -473 -327 -568
-429 -47 -50 -90 -127 -81 -143 7 -11 94 -10 194 3 117 14 229 54 433 153 212
103 273 125 291 105 7 -8 17 -68 24 -144 13 -146 55 -331 96 -418 15 -31 43
-70 62 -86 58 -47 219 -88 467 -116 340 -39 415 -72 502 -220 142 -239 88
-521 -134 -696 -118 -93 -349 -200 -574 -265 -104 -30 -217 -45 -217 -29 0 3
11 27 25 53 35 65 32 106 -12 193 -67 130 -185 227 -355 291 -77 29 -95 32
-236 36 l-153 4 7 -43 c19 -125 49 -204 172 -453 126 -258 127 -260 127 -330
0 -66 -3 -75 -40 -131 -78 -116 -169 -193 -330 -277 l-90 -47 86 -1 c155 0
274 54 468 215 152 126 188 140 461 185 328 54 563 137 758 267 112 74 275
232 370 358 102 135 116 170 109 259 -14 159 -87 347 -185 476 -140 185 -286
259 -672 345 -91 20 -200 45 -242 57 -75 19 -78 21 -89 58 -7 23 -10 89 -7
171 3 125 5 138 31 181 19 33 30 71 37 125 13 101 26 138 56 162 26 20 108 53
349 142 161 59 314 128 362 165 49 38 45 66 -27 153 -63 77 -85 85 -219 78
-64 -4 -188 -18 -276 -32 -209 -32 -221 -32 -238 3 -8 15 -20 52 -27 82 -17
74 -60 167 -115 250 -75 113 -124 138 -150 77z"/>
<path d="M952 3673 c-44 -87 -78 -221 -137 -540 -135 -723 -178 -1451 -105
-1803 22 -110 83 -239 136 -291 30 -29 42 -34 98 -37 66 -4 105 8 138 45 25
28 45 114 68 301 42 343 52 409 75 503 38 149 86 277 185 494 94 205 149 350
136 362 -27 28 -130 -98 -271 -332 -92 -151 -101 -163 -107 -137 -4 15 -14
162 -23 327 -30 571 -61 950 -86 1050 -12 48 -48 95 -73 95 -9 0 -24 -17 -34
-37z"/>
</g>
</svg>
